<svg width="1024" height="1024" viewBox="0 0 256 256" fill="none" xmlns="http://www.w3.org/2000/svg">
  <rect x="16" y="16" width="224" height="224" rx="48" fill="#0F172A" />
  <rect x="42" y="32" width="172" height="192" rx="28" stroke="#E7ECF8" stroke-width="12" />
  <rect x="60" y="50" width="18" height="156" rx="9" fill="#2F6AF6" />
  <g fill="#E7ECF8">
    <rect x="104" y="72" width="20" height="20" rx="4" />
    <rect x="136" y="72" width="20" height="20" rx="4" />
    <rect x="168" y="72" width="20" height="20" rx="4" />
    <rect x="104" y="104" width="20" height="20" rx="4" />
    <rect x="136" y="104" width="20" height="20" rx="4" />
    <rect x="168" y="104" width="20" height="20" rx="4" />
    <rect x="104" y="136" width="20" height="20" rx="4" />
    <rect x="136" y="136" width="20" height="20" rx="4" />
    <rect x="168" y="136" width="20" height="20" rx="4" />
  </g>
  <rect x="136" y="168" width="52" height="12" rx="6" fill="#2F6AF6" />
</svg>
